<svg xmlns="http://www.w3.org/2000/svg" viewBox="0 0 584.62 963.68"><defs><style>.cls-1{fill:#ff4e1f;}.cls-2{fill:#7dc1db;}.cls-3{fill:#1b3786;}</style></defs><g id="Camada_2" data-name="Camada 2"><g id="Camada_1-2" data-name="Camada 1"><path class="cls-1" d="M0,524.55,182.24,706.78,364.47,524.55l-28.63-28.64a29.85,29.85,0,0,0-42.14,0L182.24,607.39,70.76,495.91a29.84,29.84,0,0,0-42.13,0Z"/><path class="cls-1" d="M468,429,285.71,246.73,103.48,429l28.63,28.63a29.85,29.85,0,0,0,42.14,0L285.71,346.12,397.19,457.59a29.82,29.82,0,0,0,42.13,0Z"/><path class="cls-2" d="M207.5,963.68A58.51,58.51,0,0,1,166,946.53L95.11,875.62l20.42-20.41,70.9,70.9a29.83,29.83,0,0,0,42.14,0l267-267a29.79,29.79,0,0,0,0-42.12l-60.71-60.71L220.14,771l-20.41-20.42L434.86,515.45,516,596.57a58.67,58.67,0,0,1,0,83l-267,267A58.51,58.51,0,0,1,207.5,963.68Z"/><path class="cls-3" d="M514.83,377.49l61.06-61.05a29.78,29.78,0,0,0,0-42.13L310.3,8.71a29.82,29.82,0,0,0-42.13,0L207.11,69.77Z"/></g></g></svg>