<svg id="Camada_1" data-name="Camada 1" xmlns="http://www.w3.org/2000/svg" viewBox="0 0 654.32 992.53"><defs><style>.cls-1{fill:#ff4e1f;}.cls-2{fill:#7dc1db;}.cls-3{fill:#1b3786;}</style></defs><path class="cls-1" d="M223.07,776.46,0,553.4l49.05-49a58.73,58.73,0,0,1,83,0l91.06,91.06,91.05-91.06a58.73,58.73,0,0,1,83,0l49.05,49ZM40.83,553.4,223.07,735.63,405.3,553.4l-28.63-28.63a29.83,29.83,0,0,0-42.13,0L223.07,636.24,111.6,524.77a29.84,29.84,0,0,0-42.14,0Z"/><path class="cls-1" d="M326.55,234.75,549.61,457.82l-49.05,49a58.73,58.73,0,0,1-82.95,0l-91.06-91.06-91.06,91.05a58.74,58.74,0,0,1-83,0l-49-49.05ZM508.78,457.82,326.55,275.58,144.31,457.82,173,486.45a29.83,29.83,0,0,0,42.13,0L326.55,375,438,486.45a29.84,29.84,0,0,0,42.13,0Z"/><path class="cls-2" d="M248.33,992.53a58.47,58.47,0,0,1-41.48-17.15L136,904.47l20.41-20.41L227.27,955a29.83,29.83,0,0,0,42.13,0l267-267a29.8,29.8,0,0,0,0-42.13l-60.7-60.7L261,799.86l-20.41-20.41L475.7,544.31l81.11,81.11a58.67,58.67,0,0,1,0,83l-267,267A58.47,58.47,0,0,1,248.33,992.53Z"/><path class="cls-3" d="M330.06,0a58.48,58.48,0,0,1,41.48,17.15l265.6,265.6a58.65,58.65,0,0,1,0,82.95l-81.48,81.48L207.11,98.63l81.48-81.48A58.47,58.47,0,0,1,330.06,0Zm225.6,406.35,61.07-61.06a29.8,29.8,0,0,0,0-42.13L351.13,37.56a29.82,29.82,0,0,0-42.13,0L247.94,98.63Z"/></svg>