<svg xmlns="http://www.w3.org/2000/svg" viewBox="0 0 21.17 21.17"><defs><style>.cls-1{fill:#fff;}</style></defs><g id="Camada_2" data-name="Camada 2"><g id="Camada_1-2" data-name="Camada 1"><path class="cls-1" d="M14.86,0H6.31A6.32,6.32,0,0,0,0,6.31v8.55a6.32,6.32,0,0,0,6.31,6.31h8.55a6.32,6.32,0,0,0,6.31-6.31V6.31A6.32,6.32,0,0,0,14.86,0ZM19,14.86A4.18,4.18,0,0,1,14.86,19H6.31a4.18,4.18,0,0,1-4.18-4.18V6.31A4.18,4.18,0,0,1,6.31,2.13h8.55A4.18,4.18,0,0,1,19,6.31v8.55Z"/><path class="cls-1" d="M10.58,5.11a5.48,5.48,0,1,0,5.48,5.47A5.47,5.47,0,0,0,10.58,5.11Zm0,8.82a3.35,3.35,0,1,1,3.35-3.35A3.35,3.35,0,0,1,10.58,13.93Z"/><circle class="cls-1" cx="16.07" cy="5.15" r="1.31"/></g></g></svg>