<svg xmlns="http://www.w3.org/2000/svg" viewBox="0 0 353.3 70.46"><defs><style>.cls-1{fill:#1b3786;}.cls-2{fill:#ff4e1f;}.cls-3{fill:#7dc1db;}.cls-4{fill:#ff4200;}</style></defs><g id="Camada_2" data-name="Camada 2"><g id="Camada_1-2" data-name="Camada 1"><rect class="cls-1" x="290.4" y="3.04" width="8.29" height="7.89"/><path class="cls-2" d="M43.48,38.75,13.61,8.87,20.18,2.3a7.85,7.85,0,0,1,11.11,0L43.48,14.49,55.68,2.3a7.85,7.85,0,0,1,11.11,0l6.57,6.57ZM19.07,8.87,43.48,33.28,67.89,8.87,64.06,5a4,4,0,0,0-5.65,0L43.48,20,28.55,5a4,4,0,0,0-5.64,0Z"/><path class="cls-3" d="M43.43,62.93a7.83,7.83,0,0,1-5.55-2.3l-9.5-9.5,2.73-2.73,9.5,9.5a4,4,0,0,0,5.64,0L82,22.13a4,4,0,0,0,0-5.64L73.89,8.36,45.13,37.12l-2.74-2.73,31.5-31.5L84.75,13.76a7.86,7.86,0,0,1,0,11.11L49,60.63A7.85,7.85,0,0,1,43.43,62.93Z"/><path class="cls-1" d="M43.43,62.93a7.83,7.83,0,0,1-5.55-2.3L2.3,25.06A7.86,7.86,0,0,1,2.3,14L13.22,3,59.9,49.72,49,60.63A7.85,7.85,0,0,1,43.43,62.93ZM13.22,8.5,5,16.68a4,4,0,0,0,0,5.64L40.61,57.9a4,4,0,0,0,5.64,0l8.18-8.18Z"/><path class="cls-4" d="M287.21,59.88c0-3.81,1.24-6.84,5.77-6.84a16.64,16.64,0,0,1,3.21.37L296,54.73a16.66,16.66,0,0,0-3-.35c-3.54,0-4.2,2.57-4.2,5.5,0,2.73.57,5.49,4,5.49a9.73,9.73,0,0,0,3.46-.74l.5,1.22a9.83,9.83,0,0,1-4,.86C288.47,66.71,287.21,63.7,287.21,59.88Z"/><path class="cls-4" d="M303.56,56.79c3.07,0,4.27,2,4.27,5s-1.2,5-4.27,5-4.24-2-4.24-5S300.52,56.79,303.56,56.79Zm0,8.64c2.17,0,2.78-1.56,2.78-3.68s-.61-3.69-2.78-3.69-2.76,1.57-2.76,3.69S301.4,65.43,303.56,65.43Z"/><path class="cls-4" d="M311.58,53.25H313V66.5h-1.44Z"/><path class="cls-4" d="M320.74,56.79c2.49,0,3.62,1.87,3.62,4.26a10.83,10.83,0,0,1-.08,1.21h-6c.1,1.92.8,3.17,2.8,3.17a6.32,6.32,0,0,0,2.74-.7l.49,1.16a7.51,7.51,0,0,1-3.31.82c-2.64,0-4.21-1.58-4.21-4.86S318.21,56.79,320.74,56.79Zm2.2,4.32c0-1.54-.51-3-2.22-3s-2.39,1.3-2.47,3Zm-2.8-5.27-.6-.58,2.15-2.9,1.07,1Z"/><path class="cls-4" d="M331.41,69.18c1.33,0,2.34-.39,2.34-2.18V65.93a4.51,4.51,0,0,1-2.53.74c-2.45,0-3.71-1.61-3.71-4.88s1.3-5,4.31-5a11,11,0,0,1,3.38.59V67c0,2.57-1.47,3.5-3.83,3.5a13.42,13.42,0,0,1-2.87-.35l.21-1.28A12.23,12.23,0,0,0,331.41,69.18Zm2.34-4.47V58.27a7.34,7.34,0,0,0-1.91-.27c-2.14,0-2.84,1.3-2.84,3.79s.68,3.62,2.41,3.62A4.35,4.35,0,0,0,333.75,64.71Z"/><path class="cls-4" d="M339.6,53.25H341v1.81H339.6Zm0,3.74H341V66.5H339.6Z"/><path class="cls-4" d="M349,56.79c3.07,0,4.27,2,4.27,5s-1.2,5-4.27,5-4.24-2-4.24-5S346,56.79,349,56.79Zm0,8.64c2.17,0,2.78-1.56,2.78-3.68s-.61-3.69-2.78-3.69-2.75,1.57-2.75,3.69S346.87,65.43,349,65.43Z"/><path class="cls-1" d="M111.91,46.48a78.37,78.37,0,0,1-12-1.18l-.27,0,1.2-7.75.28,0a73.11,73.11,0,0,0,11,1.17c8.17,0,8.17-3.93,8.17-5.23,0-3-1.64-3.67-8.6-6.22C106.46,25.35,100,23,100,15s6.11-12.6,16.33-12.6a56.85,56.85,0,0,1,10.87,1.25l.25.05-1.13,7.69-.28-.05A64.42,64.42,0,0,0,116,10.18c-4.6,0-6.93,1.41-6.93,4.18,0,2.93,2.27,3.86,7,5.52l2,.71c5.78,2.11,11.12,5.12,11.12,12.77C129.16,41.7,122.88,46.48,111.91,46.48Z"/><path class="cls-1" d="M143.18,46.48c-6.36,0-10.63-3.95-10.63-9.84,0-6.3,4.76-9.91,13.06-9.91a30.07,30.07,0,0,1,3.63.22l.61.07v-.73c0-2.9-.84-4.57-5.16-4.57a44.32,44.32,0,0,0-8.26,1l-.28.06-1.35-7.1.27-.06a50.76,50.76,0,0,1,10.27-1.31c8.37,0,12.8,3.81,12.8,11V45.83h-6l-.72-2.1-.6.41A13.64,13.64,0,0,1,143.18,46.48Zm2.69-13.69c-4.05,0-4.9,1.92-4.9,3.52,0,2.13,1.44,3.39,3.85,3.39a9.53,9.53,0,0,0,4.77-1.46l.26-.16V33l-.51,0C147.93,32.86,146.63,32.79,145.87,32.79Z"/><path class="cls-1" d="M182,45.83V26.09c0-3-1.27-4.37-4.12-4.37a12.76,12.76,0,0,0-5,1.18l-.33.15V45.83h-8.29V15h6l.6,2.05.62-.37a16.58,16.58,0,0,1,8.4-2.33c6.5,0,10.37,4,10.37,10.76V45.83Z"/><path class="cls-1" d="M228.73,46.48c-6.36,0-10.63-3.95-10.63-9.84,0-6.3,4.76-9.91,13.06-9.91a29.8,29.8,0,0,1,3.62.22l.62.07v-.73c0-2.9-.84-4.57-5.16-4.57a44.22,44.22,0,0,0-8.26,1l-.28.06-1.35-7.1.27-.06a50.76,50.76,0,0,1,10.27-1.31c8.37,0,12.79,3.81,12.79,11V45.83h-6l-.72-2.1-.6.41A13.67,13.67,0,0,1,228.73,46.48Zm2.69-13.69c-4,0-4.9,1.92-4.9,3.52,0,2.13,1.44,3.39,3.85,3.39a9.53,9.53,0,0,0,4.77-1.46l.26-.16V33l-.51,0C233.48,32.86,232.18,32.79,231.42,32.79Z"/><path class="cls-1" d="M274.91,45.8l-.08-.15c-2.74-4.93-5.69-10.66-8.1-15.73l-.15-.31h-.35c-1.31,0-2.58-.09-3.77-.22l-.61-.06V45.8H253V3.68l.24,0a98.1,98.1,0,0,1,13.47-1.19c11,0,16.59,4.51,16.59,13.39,0,6-2.41,10-7.16,12.11l-.53.23.26.52c2.7,5.5,6.52,12.08,9.16,16.55l.08.12-.21.43Zm-8.29-35.65c-1.13,0-2.68.07-4.26.2l-.51,0v12l.51.05c1.35.12,3.09.17,4.13.17,5.69,0,7.91-1.75,7.91-6.27S272.15,10.15,266.62,10.15Z"/><rect class="cls-1" x="290.4" y="14.97" width="8.29" height="30.83"/><path class="cls-1" d="M338.34,46.45c-6.36,0-10.63-4-10.63-9.84,0-6.3,4.76-9.91,13.06-9.91a30.07,30.07,0,0,1,3.63.22L345,27v-.74c0-2.89-.84-4.57-5.16-4.57a43.4,43.4,0,0,0-8.26,1.05l-.28.06L330,15.69l.27-.06a50,50,0,0,1,10.27-1.32c8.37,0,12.8,3.82,12.8,11V45.8h-6l-.72-2.1-.6.4A13.66,13.66,0,0,1,338.34,46.45ZM341,32.76c-4,0-4.9,1.91-4.9,3.52,0,2.12,1.44,3.39,3.85,3.39a9.53,9.53,0,0,0,4.77-1.46L345,38V33l-.51,0C343.09,32.83,341.79,32.76,341,32.76Z"/><path class="cls-1" d="M207.23,46.42c-5.59,0-8.42-3.16-8.42-9.39v-16h-5.29V14.28h5.57V6.4h7.3v7.88h7.53v6.79h-7.53v15.5c0,2.14.75,2.54,2.15,2.54a14.46,14.46,0,0,0,4.29-.83l.29-.1,1.78,6.69-.23.09A20.82,20.82,0,0,1,207.23,46.42Z"/><path class="cls-1" d="M316.84,46.39c-5.59,0-8.42-3.16-8.42-9.39V21h-5.29V14.25h5.57V6.37H316v7.88h7.54V21H316v15.5c0,2.14.76,2.54,2.15,2.54a14.6,14.6,0,0,0,4.3-.83l.28-.1,1.78,6.68-.23.1A20.82,20.82,0,0,1,316.84,46.39Z"/></g></g></svg>