<svg id="facebook" xmlns="http://www.w3.org/2000/svg" width="29.787" height="29.787" viewBox="0 0 29.787 29.787">
  <path id="Caminho_106" data-name="Caminho 106" d="M1613.22,76.746h-6.68a.723.723,0,0,1-.723-.723V65.959a.744.744,0,0,1,.723-.745h3.575l.574-3.49h-4.255a.723.723,0,0,1-.617-.723V57.6a.724.724,0,0,1,.723-.724h4.255V53.342h-4.255a4.255,4.255,0,0,0-4.255,4.255V61a.723.723,0,0,1-.723.723h-2.553v3.49h2.574a.745.745,0,0,1,.724.745v9.978a.723.723,0,0,1-.7.744h-8.362a4.892,4.892,0,0,1-4.872-4.872V51.831a4.892,4.892,0,0,1,4.872-4.872h19.977a4.894,4.894,0,0,1,4.937,4.85v20a4.894,4.894,0,0,1-4.85,4.937Zm-5.935-1.468h5.935a3.4,3.4,0,0,0,3.4-3.4h0V51.831a3.4,3.4,0,0,0-3.4-3.4h-19.977a3.4,3.4,0,0,0-3.4,3.4V71.809a3.4,3.4,0,0,0,3.4,3.4h7.595V66.7h-2.574a.743.743,0,0,1-.723-.744V61a.723.723,0,0,1,.7-.745h2.6V57.6a5.723,5.723,0,0,1,5.7-5.681h5.021a.744.744,0,0,1,.745.744h0V57.6a.744.744,0,0,1-.745.744h-4.255v1.895h4.255a.761.761,0,0,1,.574.255.748.748,0,0,1,.15.6l-.83,5.021a.725.725,0,0,1-.723.617h-3.447Z" transform="translate(-1588.37 -46.959)" fill="#fff"/>
</svg>
