<svg xmlns="http://www.w3.org/2000/svg" width="30" height="30" viewBox="0 0 30 30">
  <g id="instagram" transform="translate(0 0)">
    <path id="Caminho_103" data-name="Caminho 103" d="M1565.534,76.881a8.021,8.021,0,0,1-8-8v-14a8.023,8.023,0,0,1,8-8h14a8,8,0,0,1,8,8h0v14a8.021,8.021,0,0,1-8,8Zm0-28.489a6.512,6.512,0,0,0-6.383,6.49v14a6.539,6.539,0,0,0,6.49,6.489h14a6.509,6.509,0,0,0,6.489-6.489v-14a6.51,6.51,0,0,0-6.489-6.383Z" transform="translate(-1557.534 -46.881)" fill="#fff"/>
    <path id="Caminho_104" data-name="Caminho 104" d="M1570.459,67.233a7.425,7.425,0,1,1,7.427-7.425h0A7.448,7.448,0,0,1,1570.459,67.233Zm0-13.34a5.915,5.915,0,1,0,5.916,5.915A5.915,5.915,0,0,0,1570.459,53.893Z" transform="translate(-1555.46 -44.807)" fill="#fff"/>
    <path id="Caminho_105" data-name="Caminho 105" d="M1574.913,53.5a1.43,1.43,0,0,1-.978-.426,1.361,1.361,0,0,1-.054-1.925.523.523,0,0,1,.054-.054,1.359,1.359,0,0,1,1.924-.054.478.478,0,0,1,.054.054,1.4,1.4,0,0,1,0,1.979A1.432,1.432,0,0,1,1574.913,53.5Z" transform="translate(-1551.51 -45.454)" fill="#fff"/>
  </g>
</svg>
